<svg xmlns="http://www.w3.org/2000/svg" width="816.536" height="57.781" viewBox="0 0 816.536 57.781">
  <defs>
    <style>
      .cls-1 {
        fill: #dce9f6;
        fill-rule: evenodd;
      }
    </style>
  </defs>
  <path id="formula" class="cls-1" d="M231.829,323.615h3.107v-37.6l18.642,24.857,18.643-24.857v37.6h3.107v-43.5h-2.486L253.578,305.9l-19.264-25.789h-2.485v43.5Zm65.87,0h3.107V283.223H315.1v-3.107H283.406v3.107H297.7v40.392Zm32.313-22.371h24.546v-2.8H330.012v2.8Zm0,10.875h24.546v-2.8H330.012v2.8Zm63.695,11.5h2.8V304.972a13.388,13.388,0,0,0-.839-4.847,11.069,11.069,0,0,0-2.331-3.728A10.223,10.223,0,0,0,389.792,294a11.707,11.707,0,0,0-4.474-.838,11.293,11.293,0,0,0-4.536.838,17.422,17.422,0,0,0-3.294,1.834,11.707,11.707,0,0,0-2.734,2.61l1.864,1.864a12.439,12.439,0,0,1,2.237-2.175,14.052,14.052,0,0,1,2.735-1.492,9.507,9.507,0,0,1,3.728-.683,8.086,8.086,0,0,1,6.059,2.392,9.088,9.088,0,0,1,2.33,6.618L381.9,306.837a11.714,11.714,0,0,0-6.618,3.076,8.057,8.057,0,0,0-2.392,5.934,7.306,7.306,0,0,0,.714,3.138,8.457,8.457,0,0,0,2.02,2.7,9.628,9.628,0,0,0,3.138,1.865,11.59,11.59,0,0,0,4.071.683,12.338,12.338,0,0,0,4.971-.9,13.443,13.443,0,0,0,3.355-2.019,11.638,11.638,0,0,0,2.548-2.983v5.282Zm0-13.05a11.06,11.06,0,0,1-.839,4.35,10.273,10.273,0,0,1-5.717,5.686,11.148,11.148,0,0,1-4.318.839,8.9,8.9,0,0,1-2.952-.466,6.858,6.858,0,0,1-2.268-1.274,5.825,5.825,0,0,1-1.43-1.8,4.523,4.523,0,0,1-.5-2.051,5.455,5.455,0,0,1,1.647-4.008,9.225,9.225,0,0,1,5.189-2.206l11.185-1.864v2.8Zm34.489,8.389h2.8V306.837h11.5v-2.8h-11.5V291.923h-2.8V304.04H416.7v2.8h11.5v12.117Zm35.11,4.661h2.8v-5.9a13.944,13.944,0,0,0,2.734,3.294,15.056,15.056,0,0,0,3.573,2.237,12.285,12.285,0,0,0,5.189.994,12.857,12.857,0,0,0,5.344-1.149,13.387,13.387,0,0,0,4.443-3.232,16.263,16.263,0,0,0,3.045-4.94,17.364,17.364,0,0,0,0-12.428,16.305,16.305,0,0,0-3.045-4.941,13.426,13.426,0,0,0-4.443-3.231,12.857,12.857,0,0,0-5.344-1.149,11.944,11.944,0,0,0-5.189,1.025,15.833,15.833,0,0,0-3.573,2.268,14.514,14.514,0,0,0-2.734,3.231V280.116h-2.8v43.5Zm9.849-3.107a10.858,10.858,0,0,1-3.635-2.641,13.265,13.265,0,0,1-2.486-4.039,14.568,14.568,0,0,1,0-10.254,13.277,13.277,0,0,1,2.486-4.039,10.794,10.794,0,0,1,8.078-3.573,10.047,10.047,0,0,1,4.257.932,10.737,10.737,0,0,1,3.542,2.641,13.965,13.965,0,0,1,0,18.332,10.737,10.737,0,0,1-3.542,2.641,10.047,10.047,0,0,1-4.257.932A10.752,10.752,0,0,1,473.155,320.508Zm38.217-16.375a3.485,3.485,0,1,0-.839-2.268A3.061,3.061,0,0,0,511.372,304.133Zm28.057,19.482h3.107v-43.5h-3.107v43.5Zm16.778,0h12.739a23.427,23.427,0,0,0,9.042-1.709,22.872,22.872,0,0,0,7.177-4.63,20.872,20.872,0,0,0,4.754-6.9,22.06,22.06,0,0,0,0-17.027,20.9,20.9,0,0,0-4.754-6.9,22.9,22.9,0,0,0-7.177-4.629,23.446,23.446,0,0,0-9.042-1.709H556.207v43.5Zm3.107-3.107V283.223h9.632a21.243,21.243,0,0,1,7.892,1.429,18.872,18.872,0,0,1,6.214,3.946,17.641,17.641,0,0,1,4.039,5.9,19.686,19.686,0,0,1,0,14.727,17.631,17.631,0,0,1-4.039,5.9,18.853,18.853,0,0,1-6.214,3.945,21.2,21.2,0,0,1-7.892,1.43h-9.632Zm51.577-19.264h24.546v-2.8H610.891v2.8Zm0,10.875h24.546v-2.8H610.891v2.8Zm63.7,11.5h2.8V304.972a13.388,13.388,0,0,0-.839-4.847,11.069,11.069,0,0,0-2.331-3.728A10.223,10.223,0,0,0,670.671,294a11.707,11.707,0,0,0-4.474-.838,11.293,11.293,0,0,0-4.536.838,17.422,17.422,0,0,0-3.294,1.834,11.707,11.707,0,0,0-2.734,2.61l1.864,1.864a12.439,12.439,0,0,1,2.237-2.175,14.052,14.052,0,0,1,2.735-1.492,9.507,9.507,0,0,1,3.728-.683,8.086,8.086,0,0,1,6.059,2.392,9.084,9.084,0,0,1,2.33,6.618l-11.807,1.865a11.714,11.714,0,0,0-6.618,3.076,8.057,8.057,0,0,0-2.392,5.934,7.293,7.293,0,0,0,.715,3.138,8.439,8.439,0,0,0,2.019,2.7,9.628,9.628,0,0,0,3.138,1.865,11.59,11.59,0,0,0,4.071.683,12.338,12.338,0,0,0,4.971-.9,13.425,13.425,0,0,0,3.355-2.019,11.619,11.619,0,0,0,2.548-2.983v5.282Zm0-13.05a11.06,11.06,0,0,1-.839,4.35,10.273,10.273,0,0,1-5.717,5.686,11.148,11.148,0,0,1-4.318.839,8.9,8.9,0,0,1-2.952-.466,6.858,6.858,0,0,1-2.268-1.274,5.825,5.825,0,0,1-1.43-1.8,4.523,4.523,0,0,1-.5-2.051,5.455,5.455,0,0,1,1.647-4.008,9.225,9.225,0,0,1,5.189-2.206l11.185-1.864v2.8Zm34.489,8.389h2.8V306.837h11.5v-2.8h-11.5V291.923h-2.8V304.04h-11.5v2.8h11.5v12.117Zm35.11,4.661h2.8v-5.9a13.944,13.944,0,0,0,2.734,3.294,15.056,15.056,0,0,0,3.573,2.237,12.285,12.285,0,0,0,5.189.994,12.857,12.857,0,0,0,5.344-1.149,13.387,13.387,0,0,0,4.443-3.232,16.263,16.263,0,0,0,3.045-4.94,17.364,17.364,0,0,0,0-12.428,16.305,16.305,0,0,0-3.045-4.941,13.426,13.426,0,0,0-4.443-3.231,12.857,12.857,0,0,0-5.344-1.149,11.944,11.944,0,0,0-5.189,1.025,15.833,15.833,0,0,0-3.573,2.268,14.514,14.514,0,0,0-2.734,3.231V280.116h-2.8v43.5Zm9.849-3.107a10.858,10.858,0,0,1-3.635-2.641,13.265,13.265,0,0,1-2.486-4.039,14.568,14.568,0,0,1,0-10.254,13.277,13.277,0,0,1,2.486-4.039,10.794,10.794,0,0,1,8.078-3.573,10.047,10.047,0,0,1,4.257.932,10.737,10.737,0,0,1,3.542,2.641,13.965,13.965,0,0,1,0,18.332,10.737,10.737,0,0,1-3.542,2.641,10.047,10.047,0,0,1-4.257.932A10.752,10.752,0,0,1,754.034,320.508Zm38.217-16.375a3.485,3.485,0,1,0-.839-2.268A3.061,3.061,0,0,0,792.251,304.133Zm26.814,19.482h2.8v-43.5h-2.8v43.5Zm32.158-.591a15.506,15.506,0,0,0,4.754-3.293,15.333,15.333,0,0,0,3.231-4.909,16.372,16.372,0,0,0,0-12.211,15.256,15.256,0,0,0-3.231-4.94,15.526,15.526,0,0,0-4.754-3.294,14.247,14.247,0,0,0-11.5,0,15.526,15.526,0,0,0-4.754,3.294,15.24,15.24,0,0,0-3.231,4.94,16.372,16.372,0,0,0,0,12.211,15.317,15.317,0,0,0,3.231,4.909,15.506,15.506,0,0,0,4.754,3.293A14.236,14.236,0,0,0,851.223,323.024Zm-10.377-2.578a12.7,12.7,0,0,1-3.884-2.7,12.482,12.482,0,0,1-2.641-4.039,13.462,13.462,0,0,1,0-10,12.514,12.514,0,0,1,2.641-4.039,12.712,12.712,0,0,1,3.884-2.7,11.278,11.278,0,0,1,9.259,0,12.719,12.719,0,0,1,3.883,2.7,12.531,12.531,0,0,1,2.641,4.039,13.462,13.462,0,0,1,0,10,12.5,12.5,0,0,1-2.641,4.039,12.7,12.7,0,0,1-3.883,2.7A11.278,11.278,0,0,1,840.846,320.446Zm27.311,10.287a14.731,14.731,0,0,0,2.982,2.965,17.157,17.157,0,0,0,3.667,2.047,13.188,13.188,0,0,0,5.158.92,13.364,13.364,0,0,0,5.5-1.15A14.489,14.489,0,0,0,890,332.346a15.359,15.359,0,0,0,3.107-4.723,14.839,14.839,0,0,0,1.15-5.872V293.787h-2.8v5.9a13.281,13.281,0,0,0-2.672-3.231,14.681,14.681,0,0,0-3.48-2.268,11.423,11.423,0,0,0-5.034-1.025,12.507,12.507,0,0,0-5.282,1.141,13.751,13.751,0,0,0-4.35,3.14,14.746,14.746,0,0,0-2.951,4.822,17.855,17.855,0,0,0,0,12.275,14.8,14.8,0,0,0,2.951,4.789,13.735,13.735,0,0,0,4.35,3.14,12.508,12.508,0,0,0,5.282,1.142,11.732,11.732,0,0,0,5.034-.994,13.989,13.989,0,0,0,3.48-2.238,12.8,12.8,0,0,0,2.672-3.293v5.282a11.221,11.221,0,0,1-.932,4.583,11.611,11.611,0,0,1-2.486,3.632,11.655,11.655,0,0,1-8.078,3.281,10.87,10.87,0,0,1-4.257-.751,14.58,14.58,0,0,1-3.014-1.677,9.266,9.266,0,0,1-2.361-2.487Zm7.923-10.839a11.014,11.014,0,0,1-3.449-2.549,12.025,12.025,0,0,1-2.362-3.919,15.008,15.008,0,0,1,0-10.071,12.046,12.046,0,0,1,2.362-3.919,11.048,11.048,0,0,1,3.449-2.55,9.716,9.716,0,0,1,4.194-.924,10.486,10.486,0,0,1,4.35.924,11.1,11.1,0,0,1,3.573,2.55,11.775,11.775,0,0,1,2.393,3.919,15.008,15.008,0,0,1,0,10.071,11.755,11.755,0,0,1-2.393,3.919,11.063,11.063,0,0,1-3.573,2.549,10.455,10.455,0,0,1-4.35.924A9.687,9.687,0,0,1,876.08,319.894Zm27.684,7.449a6.552,6.552,0,0,1,1.553-2.423,16.247,16.247,0,0,1,2.33-1.927q1.273-.868,2.673-1.74a18.3,18.3,0,0,0,2.516-1.864,8.7,8.7,0,0,0,1.833-2.268,6.2,6.2,0,0,0,.715-3.076,5.923,5.923,0,0,0-.466-2.3,6.48,6.48,0,0,0-1.336-2.02,6.3,6.3,0,0,0-2.144-1.429,7.488,7.488,0,0,0-2.889-.528,6.548,6.548,0,0,0-3.48.839,8.466,8.466,0,0,0-2.175,1.833,7.4,7.4,0,0,0-1.492,2.61l2.175,0.932a5.883,5.883,0,0,1,1.057-1.864,5.947,5.947,0,0,1,1.522-1.274,4.506,4.506,0,0,1,2.393-.591,4.343,4.343,0,0,1,3.107,1.181,3.548,3.548,0,0,1,1.242,2.61,3.7,3.7,0,0,1-.87,2.424,13.023,13.023,0,0,1-2.174,2.05q-1.305.995-2.859,1.989a16.911,16.911,0,0,0-2.858,2.3,11.761,11.761,0,0,0-2.175,3.014,8.711,8.711,0,0,0-.87,4.008h14.292v-2.486h-11.62Zm31.195,8.406a36.582,36.582,0,0,1-4.972-7.44,51.2,51.2,0,0,1-3.417-8.606,41.839,41.839,0,0,1,0-22.594,53.858,53.858,0,0,1,3.417-8.638,39,39,0,0,1,4.972-7.44l-2.175-1.537a40.342,40.342,0,0,0-5.282,7.87q-0.994,1.906-1.958,4.181a40.651,40.651,0,0,0-1.709,4.949,45.356,45.356,0,0,0-1.18,5.656,43.071,43.071,0,0,0-.435,6.24,43.519,43.519,0,0,0,.435,6.3,44.073,44.073,0,0,0,1.18,5.625,41.291,41.291,0,0,0,1.709,4.919q0.963,2.274,1.958,4.18a40.312,40.312,0,0,0,5.282,7.87Zm41.634-7.134h2.8l27.03-43.5h-2.8Zm61.207,8.671a44.057,44.057,0,0,0,5.28-7.87q1.005-1.906,1.93-4.18a46.57,46.57,0,0,0,1.68-4.919,47.321,47.321,0,0,0,1.21-5.625,40.878,40.878,0,0,0,.47-6.3,40.464,40.464,0,0,0-.47-6.24,48.786,48.786,0,0,0-1.21-5.656,45.717,45.717,0,0,0-1.68-4.949q-0.93-2.276-1.93-4.181a44.093,44.093,0,0,0-5.28-7.87l-2.17,1.537a39.234,39.234,0,0,1,4.97,7.44,54.6,54.6,0,0,1,3.42,8.638,41.943,41.943,0,0,1,0,22.594,51.873,51.873,0,0,1-3.42,8.606,36.783,36.783,0,0,1-4.97,7.44ZM950.323,304.4a6.575,6.575,0,0,1,1.449-2.461,16.963,16.963,0,0,1,2.22-1.993q1.223-.921,2.521-1.781a18.383,18.383,0,0,0,2.371-1.858,9.412,9.412,0,0,0,1.766-2.2,5.6,5.6,0,0,0,.7-2.839,6.134,6.134,0,0,0-.483-2.431,5.737,5.737,0,0,0-1.374-1.963,6.582,6.582,0,0,0-2.144-1.313,7.717,7.717,0,0,0-2.794-.483,7.355,7.355,0,0,0-1.842.211,7.108,7.108,0,0,0-1.464.544,5.159,5.159,0,0,0-1.133.77,7.656,7.656,0,0,0-.845.89,7.153,7.153,0,0,0-1.208,2.416l1.963,0.906a5.379,5.379,0,0,1,.845-1.812,5.2,5.2,0,0,1,1.374-1.253,4.2,4.2,0,0,1,2.31-.559,4.642,4.642,0,0,1,3.352,1.133,3.9,3.9,0,0,1,1.178,2.944,4.168,4.168,0,0,1-.845,2.612,11.023,11.023,0,0,1-2.1,2.054q-1.254.951-2.718,1.887a17.925,17.925,0,0,0-2.718,2.129,10.979,10.979,0,0,0-2.1,2.763,7.928,7.928,0,0,0-.845,3.805h13.589V304.4H950.323Zm16,2.114h6.644a11.046,11.046,0,0,0,4.333-.845,11.248,11.248,0,0,0,3.5-2.3A10.616,10.616,0,0,0,983.148,300a10.186,10.186,0,0,0,0-8.124,10.616,10.616,0,0,0-2.341-3.367,11.248,11.248,0,0,0-3.5-2.295,11.064,11.064,0,0,0-4.333-.845h-6.644v21.138Zm2.265-2.114V287.486h4.379a8.972,8.972,0,0,1,3.473.665,8.731,8.731,0,0,1,2.778,1.812,8.314,8.314,0,0,1,1.842,2.687,8.493,8.493,0,0,1,0,6.584,8.314,8.314,0,0,1-1.842,2.687,8.714,8.714,0,0,1-2.778,1.812,8.972,8.972,0,0,1-3.473.664h-4.379Zm39.948,24.066h2.26l5.59-17.666,5.58,17.666h2.27l6.94-21.139h-2.41l-5.59,17.666-5.74-17.666h-2.11l-5.74,17.666-5.58-17.666h-2.42Z" transform="translate(-231.844 -279.5)"/>
</svg>
